<svg width="24" height="20" viewBox="0 0 24 20" fill="none" xmlns="http://www.w3.org/2000/svg">
<path d="M0.383789 10.291C0.383789 9.81706 0.55306 9.41504 0.891602 9.08496L8.72461 1.25195C8.90234 1.08268 9.08854 0.955729 9.2832 0.871094C9.48633 0.777995 9.68945 0.731445 9.89258 0.731445C10.375 0.731445 10.7643 0.879557 11.0605 1.17578C11.3652 1.47201 11.5176 1.8444 11.5176 2.29297C11.5176 2.53841 11.4668 2.75846 11.3652 2.95312C11.2721 3.14779 11.1536 3.31706 11.0098 3.46094L8.31836 6.17773L4.23047 9.92285L3.55762 8.90723L8.11523 8.66602H21.915C22.4229 8.66602 22.8333 8.81836 23.1465 9.12305C23.4596 9.41927 23.6162 9.80859 23.6162 10.291C23.6162 10.7819 23.4596 11.1797 23.1465 11.4844C22.8333 11.7891 22.4229 11.9414 21.915 11.9414H8.11523L3.55762 11.6875L4.23047 10.6719L8.31836 14.417L11.0098 17.1211C11.1536 17.265 11.2721 17.4385 11.3652 17.6416C11.4668 17.8363 11.5176 18.0563 11.5176 18.3018C11.5176 18.7419 11.3652 19.11 11.0605 19.4062C10.7643 19.7025 10.375 19.8506 9.89258 19.8506C9.4694 19.8506 9.08431 19.6813 8.7373 19.3428L0.891602 11.5098C0.55306 11.1797 0.383789 10.7734 0.383789 10.291Z" fill="#353F49"/>
</svg>
