<svg width="19" height="24" viewBox="0 0 19 24" fill="none" xmlns="http://www.w3.org/2000/svg">
<path d="M0 23.9999V2.5902C0 1.86638 0.250745 1.25373 0.752236 0.752236C1.25373 0.250745 1.86638 0 2.5902 0H16.0366C16.7604 0 17.3731 0.250745 17.8746 0.752236C18.3761 1.25373 18.6268 1.86638 18.6268 2.5902V23.9999L9.3134 20.0045L0 23.9999ZM2.14925 20.7044L9.3134 17.6238L16.4776 20.7044V2.5902C16.4776 2.47987 16.4316 2.37886 16.3396 2.28716C16.2479 2.19522 16.1469 2.14925 16.0366 2.14925H2.5902C2.47987 2.14925 2.37886 2.19522 2.28716 2.28716C2.19522 2.37886 2.14925 2.47987 2.14925 2.5902V20.7044Z" fill="#1C1B1F"/>
</svg>
