<svg width="30" height="23" viewBox="0 0 30 23" fill="none" xmlns="http://www.w3.org/2000/svg">
<path d="M4.53857 22.6831C3.27718 22.6831 2.31689 22.3576 1.65771 21.7065C1.00667 21.0636 0.681152 20.1156 0.681152 18.8623V6.74072C0.681152 5.48747 1.00667 4.53939 1.65771 3.89648C2.31689 3.24544 3.27718 2.91992 4.53857 2.91992H7.60254C8.04199 2.91992 8.37158 2.87109 8.59131 2.77344C8.81917 2.66764 9.07552 2.46826 9.36035 2.17529L10.2759 1.21094C10.577 0.901693 10.9025 0.669759 11.2524 0.515137C11.6105 0.352376 12.0825 0.270996 12.6685 0.270996H17.2583C17.8442 0.270996 18.3122 0.352376 18.6621 0.515137C19.0202 0.669759 19.3498 0.901693 19.6509 1.21094L20.5664 2.17529C20.7536 2.37061 20.9245 2.52116 21.0791 2.62695C21.2337 2.73275 21.4046 2.81006 21.5918 2.85889C21.7871 2.89958 22.0353 2.91992 22.3364 2.91992H25.437C26.6984 2.91992 27.6587 3.24544 28.3179 3.89648C28.9771 4.53939 29.3066 5.48747 29.3066 6.74072V18.8623C29.3066 20.1156 28.9771 21.0636 28.3179 21.7065C27.6587 22.3576 26.6984 22.6831 25.437 22.6831H4.53857ZM4.72168 20.2539H25.2539C25.7747 20.2539 26.1735 20.1196 26.4502 19.8511C26.7269 19.5825 26.8652 19.1756 26.8652 18.6304V6.97266C26.8652 6.42741 26.7269 6.02458 26.4502 5.76416C26.1735 5.49561 25.7747 5.36133 25.2539 5.36133H21.5918C21.0791 5.36133 20.6641 5.30436 20.3467 5.19043C20.0374 5.0765 19.7404 4.86084 19.4556 4.54346L18.5645 3.5791C18.2552 3.2373 17.9704 3.00944 17.71 2.89551C17.4577 2.77344 17.0793 2.7124 16.5747 2.7124H13.3521C12.8556 2.7124 12.4772 2.77344 12.2168 2.89551C11.9564 3.00944 11.6675 3.24137 11.3501 3.59131L10.4834 4.54346C10.1904 4.86084 9.88932 5.0765 9.58008 5.19043C9.27083 5.30436 8.85579 5.36133 8.33496 5.36133H4.72168C4.20898 5.36133 3.81429 5.49561 3.5376 5.76416C3.26904 6.02458 3.13477 6.42741 3.13477 6.97266V18.6304C3.13477 19.1756 3.26904 19.5825 3.5376 19.8511C3.81429 20.1196 4.20898 20.2539 4.72168 20.2539ZM15 18.7646C13.8525 18.7646 12.8068 18.488 11.8628 17.9346C10.9188 17.373 10.1701 16.6243 9.6167 15.6885C9.06331 14.7526 8.78662 13.7069 8.78662 12.5513C8.78662 11.3957 9.06331 10.3499 9.6167 9.41406C10.1701 8.47005 10.9188 7.72135 11.8628 7.16797C12.8068 6.60645 13.8525 6.32568 15 6.32568C16.1475 6.32568 17.1891 6.60645 18.125 7.16797C19.0609 7.72135 19.8055 8.47005 20.3589 9.41406C20.9204 10.3499 21.2012 11.3957 21.2012 12.5513C21.2012 13.7069 20.9204 14.7526 20.3589 15.6885C19.8055 16.6243 19.0609 17.373 18.125 17.9346C17.1891 18.488 16.1475 18.7646 15 18.7646ZM15 16.5674C15.7406 16.5674 16.4119 16.3883 17.0142 16.0303C17.6164 15.6722 18.0965 15.188 18.4546 14.5776C18.8208 13.9673 19.0039 13.2918 19.0039 12.5513C19.0039 11.8026 18.8208 11.123 18.4546 10.5127C18.0965 9.90234 17.6164 9.41813 17.0142 9.06006C16.4119 8.70199 15.7406 8.52295 15 8.52295C14.2594 8.52295 13.584 8.70199 12.9736 9.06006C12.3633 9.41813 11.8791 9.90234 11.521 10.5127C11.1629 11.123 10.9839 11.8026 10.9839 12.5513C10.9839 13.2918 11.1629 13.9673 11.521 14.5776C11.8872 15.188 12.3714 15.6722 12.9736 16.0303C13.584 16.3883 14.2594 16.5674 15 16.5674ZM21.6406 8.4375C21.6406 8.05501 21.783 7.72135 22.0679 7.43652C22.3608 7.15169 22.7026 7.00928 23.0933 7.00928C23.4757 7.00928 23.8094 7.15169 24.0942 7.43652C24.3791 7.72135 24.5215 8.05501 24.5215 8.4375C24.5215 8.83626 24.3791 9.17806 24.0942 9.46289C23.8094 9.73958 23.4757 9.87793 23.0933 9.87793C22.7026 9.87793 22.3608 9.73958 22.0679 9.46289C21.783 9.1862 21.6406 8.8444 21.6406 8.4375Z" fill="black" fill-opacity="0.54"/>
</svg>
