<svg width="14" height="15" viewBox="0 0 14 15" fill="none" xmlns="http://www.w3.org/2000/svg">
<path d="M2.80469 14.5938C1.52344 14.5938 0.882812 14.1589 0.882812 13.2891C0.882812 12.7734 1.03385 12.2396 1.33594 11.6875C1.64323 11.1354 2.08333 10.6224 2.65625 10.1484C3.22917 9.66927 3.91667 9.28385 4.71875 8.99219C5.52083 8.69531 6.41667 8.54688 7.40625 8.54688C8.39062 8.54688 9.28125 8.69531 10.0781 8.99219C10.8802 9.28385 11.5677 9.66927 12.1406 10.1484C12.7135 10.6224 13.151 11.1354 13.4531 11.6875C13.7604 12.2396 13.9141 12.7734 13.9141 13.2891C13.9141 14.1589 13.2734 14.5938 11.9922 14.5938H2.80469ZM2.60938 13.2422H12.1875C12.276 13.2422 12.3359 13.2266 12.3672 13.1953C12.4036 13.1693 12.4219 13.125 12.4219 13.0625C12.4219 12.7812 12.3099 12.4635 12.0859 12.1094C11.862 11.75 11.5365 11.401 11.1094 11.0625C10.6823 10.724 10.1562 10.4453 9.53125 10.2266C8.91146 10.0026 8.20312 9.89062 7.40625 9.89062C6.59896 9.89062 5.88281 10.0026 5.25781 10.2266C4.63802 10.4453 4.11458 10.724 3.6875 11.0625C3.26042 11.401 2.9349 11.75 2.71094 12.1094C2.49219 12.4635 2.38281 12.7812 2.38281 13.0625C2.38281 13.125 2.39844 13.1693 2.42969 13.1953C2.46615 13.2266 2.52604 13.2422 2.60938 13.2422ZM7.40625 7.70312C6.80729 7.70312 6.26042 7.54688 5.76562 7.23438C5.27604 6.91667 4.88542 6.49219 4.59375 5.96094C4.30208 5.42969 4.15625 4.83854 4.15625 4.1875C4.15625 3.55729 4.30208 2.98177 4.59375 2.46094C4.88542 1.9349 5.27604 1.51562 5.76562 1.20312C6.26042 0.890625 6.80729 0.734375 7.40625 0.734375C8 0.734375 8.54427 0.888021 9.03906 1.19531C9.53385 1.5026 9.92708 1.91667 10.2188 2.4375C10.5104 2.95833 10.6562 3.53906 10.6562 4.17969C10.6562 4.82552 10.5078 5.41667 10.2109 5.95312C9.91927 6.48438 9.52604 6.90885 9.03125 7.22656C8.54167 7.54427 8 7.70312 7.40625 7.70312ZM7.40625 6.35938C7.73958 6.35938 8.04427 6.26562 8.32031 6.07812C8.60156 5.88542 8.82552 5.625 8.99219 5.29688C9.16406 4.96354 9.25 4.59115 9.25 4.17969C9.25 3.77865 9.16406 3.42188 8.99219 3.10938C8.82552 2.79167 8.60417 2.54167 8.32812 2.35938C8.05208 2.17708 7.74479 2.08594 7.40625 2.08594C7.06771 2.08594 6.75781 2.17708 6.47656 2.35938C6.20052 2.54167 5.97656 2.79167 5.80469 3.10938C5.63802 3.42708 5.55469 3.78646 5.55469 4.1875C5.55469 4.59896 5.63802 4.96875 5.80469 5.29688C5.97656 5.625 6.20312 5.88542 6.48438 6.07812C6.76562 6.26562 7.07292 6.35938 7.40625 6.35938Z" fill="black" fill-opacity="0.54"/>
</svg>
